<?xml version="1.0" encoding="UTF-8"?>
<svg id="Laag_1" xmlns="http://www.w3.org/2000/svg" viewBox="0 0 831.96 202.42">
  <defs>
    <style>
      .cls-1 {
        fill: none;
        stroke: #000;
        stroke-miterlimit: 10;
        stroke-width: 17px;
      }

      .cls-2 {
        font-family: Freshman, Freshman;
        font-size: 66.53px;
      }
    </style>
  </defs>
  <text class="cls-2" transform="translate(1.88 60.97)"><tspan x="0" y="0">VAN STUDENT</tspan></text>
  <text class="cls-2" transform="translate(117.51 192.38)"><tspan x="0" y="0">NAAR STUDENT</tspan></text>
  <path class="cls-1" d="M551.28,30.11c38.69,0,118.2-7.93,122.87,38.04,8.82,86.89-569.55-21.72-657.79,43.45-22.23,16.41,4.73,57.66,55.15,51.58"/>
  <polygon class="cls-1" points="95.34 163.79 69.44 148.83 69.44 178.74 95.34 163.79"/>
  <path d="M732.64,40.61v58.42c0,19.35,15.7,35.05,35.05,35.05s35.05-15.7,35.05-35.05h-29.21c-3.21,0-5.84-2.63-5.84-5.84s2.63-5.84,5.84-5.84h29.21v-11.68h-29.21c-3.21,0-5.84-2.63-5.84-5.84s2.63-5.84,5.84-5.84h29.21v-11.68h-29.21c-3.21,0-5.84-2.63-5.84-5.84s2.63-5.84,5.84-5.84h29.21c0-19.35-15.7-35.05-35.05-35.05s-35.05,15.7-35.05,35.05ZM814.43,93.19v5.84c0,25.82-20.92,46.74-46.74,46.74s-46.74-20.92-46.74-46.74v-14.61c0-4.86-3.91-8.76-8.76-8.76s-8.76,3.91-8.76,8.76v14.61c0,32.53,24.17,59.41,55.5,63.68v12.27h-17.53c-4.86,0-8.76,3.91-8.76,8.76s3.91,8.76,8.76,8.76h52.58c4.86,0,8.76-3.91,8.76-8.76s-3.91-8.76-8.76-8.76h-17.53v-12.27c31.33-4.27,55.5-31.15,55.5-63.68v-14.61c0-4.86-3.91-8.76-8.76-8.76s-8.76,3.91-8.76,8.76v8.76Z"/>
</svg>