<?xml version="1.0" encoding="UTF-8"?>
<svg id="Laag_1" xmlns="http://www.w3.org/2000/svg" viewBox="0 0 831.96 187.91">
  <defs>
    <style>
      .cls-1 {
        fill: none;
        stroke: #000;
        stroke-miterlimit: 10;
        stroke-width: 17px;
      }
    </style>
  </defs>
  <g>
    <path d="M34.54,12.51h-1.8V0h22.95v12.51h-4.99l-10.18,30.4h2.86v12.51H13.92v-12.51h2.4L6.2,12.51H1.74V0h22.35v12.51h-1.86l6.19,18.49,6.12-18.49Z"/>
    <path d="M101.07,0v12.51h-2.79l12.17,30.4h3.33v12.51h-21.29v-12.51h1.8l-.8-2.46h-14.7l-.86,2.46h1.8v12.51h-21.22v-12.51h3.33l12.17-30.4h-2.4V0h29.47ZM82.57,29.8h7.05l-3.53-8.78-3.53,8.78Z"/>
    <path d="M150.03,55.42l-14.9-24.81v12.31h3.33v12.51h-21.89v-12.51h3.33V12.51h-3.33V0h18.03l15.23,25.41v-12.91h-3.33V0h21.89v12.51h-3.33v30.4h3.33v12.51h-18.36Z"/>
    <path d="M216.29,34.06h-16.3l-8.85-8.83V8.9l8.85-8.9h24.42l8.85,8.88v10.87h-15.23v-5.47l-1.73-1.78h-8.12l-1.8,1.78v5.55l1.8,1.72h16.23l8.85,8.91v16.1l-8.85,8.85h-24.42l-8.85-8.85v-10.64h15.23v5.19l1.8,1.8h8.12l1.73-1.73v-5.32l-1.73-1.8Z"/>
    <path d="M283.81,15.77h-12.44v-3.26h-3.33v30.4h3.33v12.51h-21.95v-12.51h3.39V12.51h-3.39v3.26h-12.44V0h46.83v15.77Z"/>
    <path d="M332.04,46.53l-8.85,8.89h-24.42l-8.85-8.83V12.51h-3.33V0h21.89v12.51h-3.33v28.68l1.8,1.73h8.12l1.73-1.73V12.51h-3.33V0h21.89v12.51h-3.33v34.02Z"/>
    <path d="M339.09,0h34.33l8.85,8.9v37.67l-8.85,8.84h-34.33v-12.51h3.33V12.51h-3.33V0ZM357.66,42.91h7.58l1.8-1.73V14.3l-1.8-1.79h-7.58v30.4Z"/>
    <path d="M404.89,42.91h9.71v-2.2h12.51v14.7h-40.78v-12.51h3.33V12.51h-3.33V0h40.78v14.64h-12.51v-2.13h-9.71v8.91h2.26v-2.13h12.44v16.83h-12.44v-2.2h-2.26v8.98Z"/>
    <path d="M464.3,55.42l-14.9-24.81v12.31h3.33v12.51h-21.89v-12.51h3.33V12.51h-3.33V0h18.03l15.23,25.41v-12.91h-3.33V0h21.89v12.51h-3.33v30.4h3.33v12.51h-18.36Z"/>
    <path d="M533.22,15.77h-12.44v-3.26h-3.33v30.4h3.33v12.51h-21.95v-12.51h3.39V12.51h-3.39v3.26h-12.44V0h46.83v15.77Z"/>
  </g>
  <g>
    <path d="M150.84,186.82l-14.9-24.81v12.31h3.33v12.51h-21.89v-12.51h3.33v-30.4h-3.33v-12.51h18.03l15.23,25.41v-12.91h-3.33v-12.51h21.89v12.51h-3.33v30.4h3.33v12.51h-18.36Z"/>
    <path d="M215.5,131.41v12.51h-2.79l12.17,30.4h3.33v12.51h-21.29v-12.51h1.8l-.8-2.46h-14.7l-.86,2.46h1.8v12.51h-21.22v-12.51h3.33l12.17-30.4h-2.4v-12.51h29.47ZM197,161.21h7.05l-3.53-8.78-3.53,8.78Z"/>
    <path d="M273.58,131.41v12.51h-2.79l12.17,30.4h3.33v12.51h-21.29v-12.51h1.8l-.8-2.46h-14.7l-.86,2.46h1.8v12.51h-21.22v-12.51h3.33l12.17-30.4h-2.4v-12.51h29.47ZM255.08,161.21h7.05l-3.53-8.78-3.53,8.78Z"/>
    <path d="M307.64,174.32h3.33v12.51h-21.89v-12.51h3.33v-30.4h-3.33v-12.51h34.33l8.85,8.89v14.13l-3.66,3.65,3.66,3.59v12.64h3.33v12.51h-18.56v-20.62l-1.8-1.8h-7.58v9.91ZM307.64,151.9h7.58l1.8-1.78v-4.42l-1.8-1.78h-7.58v7.98Z"/>
    <path d="M383.41,165.47h-16.3l-8.85-8.83v-16.33l8.85-8.9h24.41l8.85,8.88v10.87h-15.24v-5.47l-1.73-1.78h-8.12l-1.8,1.78v5.55l1.8,1.72h16.23l8.85,8.92v16.1l-8.85,8.85h-24.41l-8.85-8.85v-10.64h15.23v5.19l1.8,1.8h8.12l1.73-1.73v-5.32l-1.73-1.8Z"/>
    <path d="M450.93,147.17h-12.44v-3.26h-3.33v30.4h3.33v12.51h-21.95v-12.51h3.39v-30.4h-3.39v3.26h-12.44v-15.77h46.83v15.77Z"/>
    <path d="M499.16,177.94l-8.85,8.89h-24.42l-8.85-8.83v-34.08h-3.33v-12.51h21.89v12.51h-3.33v28.68l1.8,1.73h8.12l1.73-1.73v-28.68h-3.33v-12.51h21.89v12.51h-3.33v34.02Z"/>
    <path d="M506.21,131.41h34.33l8.85,8.9v37.67l-8.85,8.84h-34.33v-12.51h3.33v-30.4h-3.33v-12.51ZM524.77,174.32h7.58l1.8-1.73v-26.88l-1.8-1.79h-7.58v30.4Z"/>
    <path d="M572.01,174.32h9.71v-2.2h12.51v14.7h-40.78v-12.51h3.33v-30.4h-3.33v-12.51h40.78v14.64h-12.51v-2.13h-9.71v8.91h2.26v-2.13h12.44v16.83h-12.44v-2.2h-2.26v8.98Z"/>
    <path d="M631.42,186.82l-14.9-24.81v12.31h3.33v12.51h-21.89v-12.51h3.33v-30.4h-3.33v-12.51h18.03l15.23,25.41v-12.91h-3.33v-12.51h21.89v12.51h-3.33v30.4h3.33v12.51h-18.36Z"/>
    <path d="M700.34,147.17h-12.44v-3.26h-3.33v30.4h3.33v12.51h-21.95v-12.51h3.39v-30.4h-3.39v3.26h-12.44v-15.77h46.83v15.77Z"/>
  </g>
  <path class="cls-1" d="M551.28,24.55c38.69,0,118.2-7.93,122.87,38.04,8.82,86.89-569.55-21.72-657.79,43.45-22.23,16.41,4.73,57.66,55.15,51.58"/>
  <polygon class="cls-1" points="95.34 158.23 69.44 143.28 69.44 173.19 95.34 158.23"/>
  <path d="M732.64,35.05v58.42c0,19.35,15.7,35.05,35.05,35.05s35.05-15.7,35.05-35.05h-29.21c-3.21,0-5.84-2.63-5.84-5.84s2.63-5.84,5.84-5.84h29.21v-11.68h-29.21c-3.21,0-5.84-2.63-5.84-5.84s2.63-5.84,5.84-5.84h29.21v-11.68h-29.21c-3.21,0-5.84-2.63-5.84-5.84s2.63-5.84,5.84-5.84h29.21C802.75,15.7,787.05,0,767.69,0s-35.05,15.7-35.05,35.05ZM814.43,87.63v5.84c0,25.82-20.92,46.74-46.74,46.74s-46.74-20.92-46.74-46.74v-14.61c0-4.86-3.91-8.76-8.76-8.76s-8.76,3.91-8.76,8.76v14.61c0,32.53,24.17,59.41,55.5,63.68v12.27h-17.53c-4.86,0-8.76,3.91-8.76,8.76s3.91,8.76,8.76,8.76h52.58c4.86,0,8.76-3.91,8.76-8.76s-3.91-8.76-8.76-8.76h-17.53v-12.27c31.33-4.27,55.5-31.15,55.5-63.68v-14.61c0-4.86-3.91-8.76-8.76-8.76s-8.76,3.91-8.76,8.76v8.76Z"/>
</svg>