<?xml version="1.0" encoding="UTF-8"?>
<svg xmlns="http://www.w3.org/2000/svg" viewBox="0 0 763.39 223.36">
  <defs>
    <style>
      .cls-1, .cls-2, .cls-3, .cls-4 {
        stroke: #fff;
        stroke-miterlimit: 10;
      }

      .cls-1, .cls-3, .cls-4, .cls-5 {
        fill: #fff;
      }

      .cls-2 {
        fill: none;
      }

      .cls-2, .cls-4 {
        stroke-width: 17px;
      }

      .cls-3, .cls-5 {
        font-family: Freshman, Freshman;
        font-size: 70px;
      }
    </style>
  </defs>
  <g id="Laag_1">
    <text class="cls-3" transform="translate(.64 74.52)"><tspan x="0" y="0">VAN STUDENT</tspan></text>
    <text class="cls-5" transform="translate(122.31 212.79)"><tspan x="0" y="0">NAAR STUDENT</tspan></text>
    <path class="cls-2" d="M570.16,44.13s55-10.29,47.86,37.94c-15.07,101.75-569.29-33.57-592.86,61.07-7.03,28.21,11.95,43.9,65,37.51"/>
    <polygon class="cls-4" points="99.81 181.69 73.91 166.73 73.91 196.64 99.81 181.69"/>
  </g>
  <g id="Laag_2">
    <path class="cls-1" d="M684.38,28.21v46.18c0,15.3,12.41,27.71,27.71,27.71s27.71-12.41,27.71-27.71h-23.09c-2.54,0-4.62-2.08-4.62-4.62s2.08-4.62,4.62-4.62h23.09v-9.24h-23.09c-2.54,0-4.62-2.08-4.62-4.62s2.08-4.62,4.62-4.62h23.09v-9.24h-23.09c-2.54,0-4.62-2.08-4.62-4.62s2.08-4.62,4.62-4.62h23.09c0-15.3-12.41-27.71-27.71-27.71s-27.71,12.41-27.71,27.71ZM749.04,69.77v4.62c0,20.41-16.54,36.95-36.95,36.95s-36.95-16.54-36.95-36.95v-11.55c0-3.84-3.09-6.93-6.93-6.93s-6.93,3.09-6.93,6.93v11.55c0,25.72,19.11,46.96,43.87,50.34v9.7h-13.85c-3.84,0-6.93,3.09-6.93,6.93s3.09,6.93,6.93,6.93h41.56c3.84,0,6.93-3.09,6.93-6.93s-3.09-6.93-6.93-6.93h-13.85v-9.7c24.77-3.38,43.87-24.62,43.87-50.34v-11.55c0-3.84-3.09-6.93-6.93-6.93s-6.93,3.09-6.93,6.93v6.93Z"/>
  </g>
</svg>